# xmcd
#
# Track frame offsets: 
#        150
#        29297
#        36847
#        55060
#        68392
#        89385
#        107740
#        126405
#        135585
#        164400
#        179285
#        197852
#        217302
#        244315
#        268667
#        284277
#
# Disc length: 4105 seconds
#
# Revision: 3
# Processed by: cddbd v1.5.2PL0 Copyright (c) Steve Scherf et al.
# Submitted via: ExactAudioCopyFreeDBPlugin 1.0
#
DISCID=f2100710
DTITLE=Chie Ayado 綾戸智絵 - Best
DYEAR=2002
DGENRE=Jazz
TTITLE0=Over The Rainbow
TTITLE1=Oleo
TTITLE2=Tennessee Waltz
TTITLE3=Route 66
TTITLE4=Yozora No Mukou
TTITLE5=Spinning Wheel
TTITLE6=Every Breath You Take
TTITLE7=Moon River
TTITLE8=Leaving On A Jet Plane
TTITLE9=Everybody Everywhere
TTITLE10=Women Of Ireland - MNa Na h EIREANN
TTITLE11=Get Into My Life
TTITLE12=Slow Dancer
TTITLE13=Low Rider
TTITLE14=Get Back
TTITLE15=You Are So Beautiful
EXTD=YEAR: 2002
EXTT0=
EXTT1=
EXTT2=
EXTT3=
EXTT4=
EXTT5=
EXTT6=
EXTT7=
EXTT8=
EXTT9=
EXTT10=
EXTT11=
EXTT12=
EXTT13=
EXTT14=
EXTT15=
PLAYORDER=
